# xmcd
#
# Track frame offsets: 
#        150
#        14237
#        30775
#        49625
#        64375
#        92175
#        102250
#        117362
#        132662
#        157975
#        176575
#        194275
#        201100
#        211675
#
# Disc length: 3104 seconds
#
# Revision: 0
# Processed by: cddbd v1.5.1PL0 Copyright (c) Steve Scherf et al.
# Submitted via: ExactAudioCopy v0.95b2
#
DISCID=c20c1e0e
DTITLE=Edu Kettunen - Parhaat
DYEAR=1900
DGENRE=Ballad
TTITLE0=Retki meren rantaan
TTITLE1=Väärin teit
TTITLE2=Kone älä hyydy
TTITLE3=Lentäjän poika
TTITLE4=Eräänä yönä
TTITLE5=Roosan ja Valtterin luvattu maa
TTITLE6=Helsinki
TTITLE7=Jos sinä lähtisit pois
TTITLE8=Valomeren aallot
TTITLE9=Sitä se kitara soittaa
TTITLE10=Suiston salaisuus
TTITLE11=Rodeo
TTITLE12=Polkan transsi
TTITLE13=Minä ajoin koko yön
EXTD=
EXTT0=
EXTT1=
EXTT2=
EXTT3=
EXTT4=
EXTT5=
EXTT6=
EXTT7=
EXTT8=
EXTT9=
EXTT10=
EXTT11=
EXTT12=
EXTT13=
PLAYORDER=
